<svg xmlns="http://www.w3.org/2000/svg" viewBox="0 0 44.502922 44.285378" height="167.378" width="168.2"><g transform="matrix(1 0 0 .8825 -109.06 -29.472)"><g style="line-height:1.25;-inkscape-font-specification:'Dosis, Medium';font-variant-ligatures:normal;font-variant-caps:normal;font-variant-numeric:normal;font-feature-settings:normal;text-align:start"><path style="-inkscape-font-specification:'Dosis, Medium';font-variant-ligatures:normal;font-variant-caps:normal;font-variant-numeric:normal;font-feature-settings:normal;text-align:start" d="M113.492 49.237q0-.39.43-.668.458-.278.942-.278.673 0 .834.529l4.548 16.533 2.557-10.187q.188-.724 1.184-.724.942 0 1.13.724l2.584 10.187 4.52-16.533q.162-.529.862-.529.484 0 .915.278.43.279.43.668 0 .167-.027.25l-5.301 18.51q-.242.807-1.4.807-1.21 0-1.399-.807l-2.314-9.185-2.341 9.185q-.216.807-1.373.807t-1.4-.807l-5.327-18.51q-.054-.166-.054-.25zM136.81 67.83V49.098q0-.334.269-.556.296-.251.753-.251h4.764q2.637 0 4.225 1.475 1.587 1.448 1.587 4.593v8.21q0 3.146-1.587 4.62-1.588 1.448-4.225 1.448h-4.764q-.457 0-.753-.223-.27-.25-.27-.584zm2.26-1.308h3.526q1.695 0 2.61-.974.942-1.002.942-2.979v-8.21q0-1.976-.942-2.95-.915-1.003-2.61-1.003h-3.526z" font-weight="500" font-size="27.368" font-family="Dosis" letter-spacing="0" word-spacing="0" fill="#f2f2f2"/></g><rect ry=".155" y="34.877" x="109.905" height="47.779" width="42.812" fill="none" stroke="#f2f2f2" stroke-width="1.058"/></g></svg>